<svg width="312" height="62" fill="none" xmlns="http://www.w3.org/2000/svg"><path d="M1.792 30V10.26H20.02V30h-5.152V14.46H6.944V30H1.792zm21.82 0V10.26h9.492c2.24 0 3.967.579 5.18 1.736 1.232 1.139 1.848 2.716 1.848 4.732s-.616 3.603-1.848 4.76c-1.213 1.139-2.94 1.708-5.18 1.708h-4.34V30h-5.152zm5.152-10.752h3.444c2.016 0 3.024-.84 3.024-2.52 0-1.68-1.008-2.52-3.024-2.52h-3.444v5.04zM38.05 30l9.24-19.74h4.06L60.589 30h-5.152l-1.708-4.004h-8.82L43.2 30h-5.152zm11.228-14.364l-2.688 6.412h5.432l-2.688-6.412h-.056zM61.784 30V10.26h9.52c2.128 0 3.77.467 4.928 1.4 1.176.915 1.764 2.147 1.764 3.696 0 1.027-.261 1.923-.784 2.688-.504.765-1.213 1.335-2.128 1.708 1.102.336 1.95.905 2.548 1.708.597.784.896 1.764.896 2.94 0 1.736-.625 3.108-1.876 4.116-1.232.99-2.921 1.484-5.068 1.484h-9.8zm4.928-11.9h3.668c.934 0 1.615-.168 2.044-.504.448-.336.672-.85.672-1.54 0-.69-.224-1.195-.672-1.512-.43-.336-1.11-.504-2.044-.504h-3.668v4.06zm0 8.12h4.172c.952 0 1.643-.177 2.072-.532.448-.373.672-.924.672-1.652 0-.728-.224-1.27-.672-1.624-.43-.355-1.12-.532-2.072-.532h-4.172v4.34zm24.252 4.088c-1.997 0-3.752-.42-5.264-1.26a9.104 9.104 0 01-3.5-3.584c-.84-1.53-1.26-3.313-1.26-5.348 0-2.053.411-3.836 1.232-5.348a8.861 8.861 0 013.528-3.556c1.512-.84 3.267-1.26 5.264-1.26 1.998 0 3.743.42 5.236 1.26a8.861 8.861 0 013.528 3.556c.84 1.512 1.26 3.295 1.26 5.348 0 2.035-.42 3.817-1.26 5.348a9.05 9.05 0 01-3.528 3.584c-1.493.84-3.238 1.26-5.236 1.26zm0-4.312c1.456 0 2.595-.513 3.416-1.54.84-1.045 1.26-2.492 1.26-4.34 0-1.848-.41-3.285-1.232-4.312-.821-1.027-1.969-1.54-3.444-1.54-1.474 0-2.622.513-3.444 1.54-.821 1.027-1.232 2.464-1.232 4.312 0 1.848.411 3.295 1.232 4.34.822 1.027 1.97 1.54 3.444 1.54zm19.506 4.312c-1.624 0-3.061-.187-4.312-.56a12.05 12.05 0 01-3.388-1.596l1.428-3.78c.728.541 1.587.961 2.576 1.26.99.299 2.063.448 3.22.448 1.27 0 2.203-.177 2.8-.532.598-.373.896-.943.896-1.708 0-.635-.224-1.101-.672-1.4-.429-.317-1.12-.476-2.072-.476h-4.76v-3.948h4.228c.952 0 1.643-.15 2.072-.448.43-.299.644-.765.644-1.4 0-.579-.242-1.055-.728-1.428-.466-.373-1.241-.56-2.324-.56-1.008 0-1.997.15-2.968.448-.97.28-1.81.69-2.52 1.232l-1.456-3.78c.896-.653 1.998-1.167 3.304-1.54 1.307-.392 2.735-.588 4.284-.588 2.502 0 4.368.513 5.6 1.54 1.232 1.027 1.848 2.315 1.848 3.864 0 1.027-.261 1.923-.784 2.688-.504.765-1.213 1.335-2.128 1.708 1.102.336 1.942.905 2.52 1.708.598.784.896 1.764.896 2.94 0 1.736-.672 3.155-2.016 4.256-1.344 1.101-3.406 1.652-6.188 1.652zm8.489-.308l9.24-19.74h4.06l9.24 19.74h-5.152l-1.708-4.004h-8.82L124.111 30h-5.152zm11.228-14.364l-2.688 6.412h5.432l-2.688-6.412h-.056zM167.95 34.9V30h-25.256V10.26h5.068V25.8h5.88V10.26h5.04V25.8h5.88V10.26h5.068V25.8h2.8v9.1h-4.48zm6.901-4.9V10.26h4.788v11.424l9.044-11.424h3.78V30h-4.76V18.548L178.631 30h-3.78zm25.866 0V14.46h-6.272v-4.2h17.696v4.2h-6.272V30h-5.152zm13.372 0V10.26h5.152v7.616h8.148V10.26h5.124V30h-5.124v-7.896h-8.148V30h-5.152zm22.012 0V10.26h4.788v11.424l9.044-11.424h3.78V30h-4.76V18.548L239.881 30h-3.78zm21.218 0V10.26h5.152v7.896h1.96l4.704-7.896h5.572l-5.656 8.932c1.27.71 2.315 1.904 3.136 3.584l3.5 7.224h-5.544l-2.52-5.544c-.354-.765-.793-1.307-1.316-1.624-.522-.317-1.194-.476-2.016-.476h-1.82V30h-5.152z" fill="#4F8FF0"/><path d="M11.26 54.22c-1.4 0-2.567-.34-3.5-1.02-.92-.693-1.507-1.64-1.76-2.84H4.68V54H1.2v-9.84h3.48v3.46h1.34c.28-1.16.88-2.06 1.8-2.7.92-.653 2.067-.98 3.44-.98 1.093 0 2.047.207 2.86.62a4.536 4.536 0 011.9 1.78c.453.76.68 1.673.68 2.74 0 1.053-.227 1.967-.68 2.74a4.536 4.536 0 01-1.9 1.78c-.813.413-1.767.62-2.86.62zm0-2.62c.547 0 .993-.2 1.34-.6.347-.4.52-1.04.52-1.92 0-.893-.173-1.533-.52-1.92-.347-.4-.793-.6-1.34-.6s-.993.2-1.34.6c-.347.387-.52 1.027-.52 1.92 0 .88.173 1.52.52 1.92.347.4.793.6 1.34.6zm7.42 6V44.16h3.46v1.34c.268-.48.674-.86 1.22-1.14a3.89 3.89 0 011.8-.42c.84 0 1.58.207 2.22.62.654.413 1.16 1.007 1.52 1.78.374.76.56 1.673.56 2.74 0 1.053-.18 1.967-.54 2.74-.36.773-.866 1.367-1.52 1.78-.64.413-1.386.62-2.24.62a3.958 3.958 0 01-1.72-.38c-.52-.253-.92-.593-1.2-1.02v4.78h-3.56zm5.36-6c.534 0 .974-.2 1.32-.6.348-.4.52-1.04.52-1.92 0-.893-.172-1.533-.52-1.92a1.67 1.67 0 00-1.32-.6c-.546 0-.992.2-1.34.6-.346.387-.52 1.027-.52 1.92 0 .88.174 1.52.52 1.92.348.4.794.6 1.34.6zm7.375 2.4v-9.84h3.2v5.32l4.04-5.32h2.92V54h-3.2v-5.34L34.335 54h-2.92zm11.858 2.6v-5.28h1.24c.294-.533.5-1.14.62-1.82.134-.68.2-1.573.2-2.68v-2.66h8.5v7.16h1.66v5.28h-3V54h-6.22v2.6h-3zm4.34-5.26h2.9v-4.5h-2.2v.94c0 .64-.06 1.28-.18 1.92-.12.64-.293 1.187-.52 1.64zM56.962 54v-9.84h3.2v5.32l4.04-5.32h2.92V54h-3.2v-5.34L59.882 54h-2.92zm18.678 0v-3.06a6.11 6.11 0 01-1 .26c-.32.053-.633.08-.94.08-3.053 0-4.58-1.5-4.58-4.5v-2.62h3.56v2.3c0 .707.127 1.213.38 1.52.267.307.727.46 1.38.46.214 0 .414-.02.6-.06.2-.04.374-.1.52-.18v-4.04h3.56V54h-3.48zm11.252.22c-1.2 0-2.24-.207-3.12-.62-.866-.427-1.533-1.027-2-1.8-.466-.773-.7-1.687-.7-2.74 0-1 .22-1.887.66-2.66a4.772 4.772 0 011.84-1.8c.787-.44 1.68-.66 2.68-.66.987 0 1.84.207 2.56.62a4.094 4.094 0 011.68 1.78c.4.76.6 1.653.6 2.68v.78h-6.62c.12.64.387 1.1.8 1.38.414.28.987.42 1.72.42a6.09 6.09 0 001.58-.22 5.03 5.03 0 001.48-.68l.88 2.34c-.506.36-1.126.647-1.86.86-.733.213-1.46.32-2.18.32zm-.48-7.98c-.533 0-.973.16-1.32.48-.333.32-.546.787-.64 1.4h3.72c-.04-.627-.213-1.093-.52-1.4-.293-.32-.706-.48-1.24-.48zm11.605 7.98c-1.106 0-2.073-.207-2.9-.62a4.536 4.536 0 01-1.9-1.78c-.453-.773-.68-1.693-.68-2.76 0-1.067.227-1.98.68-2.74a4.41 4.41 0 011.9-1.76c.827-.413 1.794-.62 2.9-.62.654 0 1.3.093 1.94.28.654.173 1.187.42 1.6.74l-.94 2.44a3.445 3.445 0 00-1.08-.56c-.4-.147-.78-.22-1.14-.22-.706 0-1.253.213-1.64.64-.386.427-.58 1.027-.58 1.8 0 .787.194 1.4.58 1.84.387.427.934.64 1.64.64.36 0 .74-.067 1.14-.2.414-.147.774-.34 1.08-.58l.94 2.44c-.413.32-.946.573-1.6.76-.653.173-1.3.26-1.94.26zm4.999-.22v-9.84h3.56v3.48h.96l2.4-3.48h3.76l-3.02 4.42c.267.173.5.387.7.64.214.24.4.507.56.8l2.12 3.98h-3.78l-1.5-2.8c-.186-.32-.373-.54-.56-.66-.186-.12-.426-.18-.72-.18h-.92V54h-3.56zm15.413.22c-.76 0-1.433-.14-2.02-.42a3.47 3.47 0 01-1.36-1.14 3.019 3.019 0 01-.48-1.68c0-.707.187-1.267.56-1.68.373-.427.973-.727 1.8-.9.827-.187 1.927-.28 3.3-.28h.76v-.28c0-.48-.127-.82-.38-1.02-.24-.2-.66-.3-1.26-.3a6.7 6.7 0 00-1.68.24 7.45 7.45 0 00-1.8.74l-.9-2.34c.333-.24.76-.453 1.28-.64a9.237 9.237 0 011.64-.42 8.868 8.868 0 011.62-.16c1.64 0 2.853.353 3.64 1.06.8.707 1.2 1.82 1.2 3.34V54h-3.32v-1.4a2.266 2.266 0 01-.94 1.2c-.453.28-1.007.42-1.66.42zm.8-2.32c.493 0 .907-.16 1.24-.48.347-.32.52-.74.52-1.26v-.36h-.76c-.787 0-1.367.087-1.74.26-.36.16-.54.42-.54.78 0 .307.107.56.32.76.227.2.547.3.96.3zm6.599 2.1l1.38-2.42c.373-.653.866-1.1 1.48-1.34-1.587-.333-2.38-1.3-2.38-2.9 0-1 .346-1.78 1.04-2.34.693-.56 1.693-.84 3-.84h5.7V54h-3.26v-2.98h-.6c-.227 0-.44.073-.64.22-.2.147-.374.34-.52.58l-1.22 2.18h-3.98zm5.3-5.22h1.66V46.4h-1.66c-.494 0-.867.107-1.12.32-.254.2-.38.487-.38.86s.126.667.38.88c.253.213.626.32 1.12.32zM144.169 54v-9.84h3.56v3.48h.96l2.4-3.48h3.76l-3.02 4.42c.266.173.5.387.7.64.213.24.4.507.56.8l2.12 3.98h-3.78l-1.5-2.8c-.187-.32-.374-.54-.56-.66-.187-.12-.427-.18-.72-.18h-.92V54h-3.56zm16.972.22c-1.093 0-2.046-.207-2.86-.62a4.542 4.542 0 01-1.9-1.78c-.453-.773-.68-1.687-.68-2.74 0-1.067.227-1.98.68-2.74a4.542 4.542 0 011.9-1.78c.814-.413 1.767-.62 2.86-.62 1.094 0 2.047.207 2.86.62a4.406 4.406 0 011.88 1.78c.454.76.68 1.673.68 2.74 0 1.053-.226 1.967-.68 2.74a4.406 4.406 0 01-1.88 1.78c-.813.413-1.766.62-2.86.62zm0-2.62c.534 0 .974-.2 1.32-.6.347-.4.52-1.04.52-1.92 0-.893-.173-1.533-.52-1.92-.346-.4-.786-.6-1.32-.6-.546 0-.993.2-1.34.6-.346.387-.52 1.027-.52 1.92 0 .88.174 1.52.52 1.92.347.4.794.6 1.34.6zm7.383 2.4v-9.84h2.92l3.06 4.9 3.04-4.9h2.9V54h-3.12v-4.9l-2.04 3.28h-1.6l-2.04-3.28V54h-3.12zm14.317 0v-9.84h10.2V54h-3.56v-7.12h-3.08V54h-3.56zm16.037.22c-.76 0-1.433-.14-2.02-.42a3.477 3.477 0 01-1.36-1.14 3.019 3.019 0 01-.48-1.68c0-.707.187-1.267.56-1.68.374-.427.974-.727 1.8-.9.827-.187 1.927-.28 3.3-.28h.76v-.28c0-.48-.126-.82-.38-1.02-.24-.2-.66-.3-1.26-.3-.506 0-1.066.08-1.68.24a7.45 7.45 0 00-1.8.74l-.9-2.34c.334-.24.76-.453 1.28-.64a9.237 9.237 0 011.64-.42 8.885 8.885 0 011.62-.16c1.64 0 2.854.353 3.64 1.06.8.707 1.2 1.82 1.2 3.34V54h-3.32v-1.4a2.261 2.261 0 01-.94 1.2c-.453.28-1.006.42-1.66.42zm.8-2.32c.494 0 .907-.16 1.24-.48.347-.32.52-.74.52-1.26v-.36h-.76c-.786 0-1.366.087-1.74.26-.36.16-.54.42-.54.78 0 .307.107.56.32.76.227.2.547.3.96.3zm7.479 2.1v-9.84h3.56v3.46h3.14v-3.46h3.56V54h-3.56v-3.64h-3.14V54h-3.56zm12.656 0v-9.84h3.2v5.32l4.04-5.32h2.92V54h-3.2v-5.34l-4.04 5.34h-2.92zm11.679 0l1.38-2.42c.373-.653.867-1.1 1.48-1.34-1.587-.333-2.38-1.3-2.38-2.9 0-1 .347-1.78 1.04-2.34.693-.56 1.693-.84 3-.84h5.7V54h-3.26v-2.98h-.6c-.227 0-.44.073-.64.22-.2.147-.373.34-.52.58l-1.22 2.18h-3.98zm5.3-5.22h1.66V46.4h-1.66c-.493 0-.867.107-1.12.32-.253.2-.38.487-.38.86s.127.667.38.88c.253.213.627.32 1.12.32z" fill="#fff"/></svg>