<svg width="18" height="21" fill="none" xmlns="http://www.w3.org/2000/svg"><g opacity=".4" clip-path="url(#clip0_156_471)"><path d="M6.48 0C5.296 0 4.32 1.016 4.32 2.25v8.86l-.472-.516-.18-.164a2.094 2.094 0 00-1.508-.65c-.565 0-1.107.233-1.508.649A2.274 2.274 0 00.03 12c0 .589.224 1.153.622 1.57v.024l5.896 6.07.044.023.023.048a5.827 5.827 0 003.6 1.265h1.238a5.677 5.677 0 002.258-.464 5.872 5.872 0 001.914-1.331 6.152 6.152 0 001.277-1.994 6.35 6.35 0 00.446-2.352V9c0-1.234-.977-2.25-2.16-2.25-.307 0-.59.088-.856.21-.236-.974-1.088-1.71-2.092-1.71-.552 0-1.058.225-1.44.586a2.102 2.102 0 00-1.44-.586c-.246.003-.49.05-.72.141V2.25C8.64 1.016 7.664 0 6.48 0zm0 1.5c.4 0 .72.334.72.75v8.25h1.44v-3c0-.416.32-.75.72-.75.4 0 .72.334.72.75v3h1.44v-3c0-.416.32-.75.72-.75.4 0 .72.334.72.75v3h1.508V9c0-.416.32-.75.72-.75.399 0 .72.334.72.75v5.86c0 2.598-1.96 4.64-4.456 4.64h-1.237c-1.054 0-1.966-.392-2.723-.985l-5.827-6c-.32-.334-.32-.697 0-1.031.32-.334.67-.334.99 0l3.105 3.235V2.25c0-.416.32-.75.72-.75z" fill="#fff"/></g><defs><clipPath id="clip0_156_471"><path fill="#fff" d="M0 0h18v21H0z"/></clipPath></defs></svg>